<mxfile host="app.diagrams.net" agent="Mozilla/5.0 (Windows NT 10.0; Win64; x64) AppleWebKit/537.36 (KHTML, like Gecko) Chrome/139.0.0.0 Safari/537.36" version="28.1.1">
  <diagram name="Page-1" id="4eqn4A7dm11N9ULA09sd">
    <mxGraphModel dx="3149" dy="1055" grid="1" gridSize="10" guides="1" tooltips="1" connect="1" arrows="1" fold="1" page="1" pageScale="1" pageWidth="1100" pageHeight="850" math="0" shadow="0">
      <root>
        <mxCell id="0" />
        <mxCell id="1" parent="0" />
        <mxCell id="IyvMRcnvmjVK71PpzHeP-1" value="WIB" style="rounded=0;whiteSpace=wrap;html=1;fontSize=20;fontStyle=1;fontFamily=Times New Roman;" vertex="1" parent="1">
          <mxGeometry x="-200" y="40" width="1280" height="40" as="geometry" />
        </mxCell>
        <mxCell id="IyvMRcnvmjVK71PpzHeP-2" value="Power Connectors" style="rounded=0;whiteSpace=wrap;html=1;fontSize=20;fontStyle=1;fontFamily=Times New Roman;" vertex="1" parent="1">
          <mxGeometry x="200" y="120" width="200" height="40" as="geometry" />
        </mxCell>
        <mxCell id="IyvMRcnvmjVK71PpzHeP-19" style="edgeStyle=orthogonalEdgeStyle;rounded=0;orthogonalLoop=1;jettySize=auto;html=1;exitX=0.5;exitY=1;exitDx=0;exitDy=0;entryX=0.5;entryY=0;entryDx=0;entryDy=0;" edge="1" parent="1" source="IyvMRcnvmjVK71PpzHeP-3" target="IyvMRcnvmjVK71PpzHeP-5">
          <mxGeometry relative="1" as="geometry" />
        </mxCell>
        <mxCell id="IyvMRcnvmjVK71PpzHeP-3" value="DATA Connectors" style="rounded=0;whiteSpace=wrap;html=1;fontSize=20;fontStyle=1;fontFamily=Times New Roman;" vertex="1" parent="1">
          <mxGeometry x="640" y="120" width="200" height="40" as="geometry" />
        </mxCell>
        <mxCell id="IyvMRcnvmjVK71PpzHeP-4" value="" style="endArrow=classic;html=1;rounded=0;" edge="1" parent="1" target="IyvMRcnvmjVK71PpzHeP-2">
          <mxGeometry width="50" height="50" relative="1" as="geometry">
            <mxPoint x="300" y="80" as="sourcePoint" />
            <mxPoint x="570" y="330" as="targetPoint" />
          </mxGeometry>
        </mxCell>
        <mxCell id="IyvMRcnvmjVK71PpzHeP-10" style="edgeStyle=orthogonalEdgeStyle;rounded=0;orthogonalLoop=1;jettySize=auto;html=1;exitX=0;exitY=0.5;exitDx=0;exitDy=0;entryX=0.5;entryY=0;entryDx=0;entryDy=0;startArrow=classic;startFill=1;" edge="1" parent="1" source="IyvMRcnvmjVK71PpzHeP-5" target="IyvMRcnvmjVK71PpzHeP-9">
          <mxGeometry relative="1" as="geometry" />
        </mxCell>
        <mxCell id="IyvMRcnvmjVK71PpzHeP-21" style="edgeStyle=orthogonalEdgeStyle;rounded=0;orthogonalLoop=1;jettySize=auto;html=1;exitX=1;exitY=0.5;exitDx=0;exitDy=0;entryX=0.5;entryY=0;entryDx=0;entryDy=0;startArrow=classic;startFill=1;" edge="1" parent="1" source="IyvMRcnvmjVK71PpzHeP-5" target="IyvMRcnvmjVK71PpzHeP-20">
          <mxGeometry relative="1" as="geometry" />
        </mxCell>
        <mxCell id="IyvMRcnvmjVK71PpzHeP-5" value="Cyclone IV&lt;div&gt;FPGA&lt;/div&gt;" style="rounded=0;whiteSpace=wrap;html=1;fontSize=20;fontStyle=1;fontFamily=Times New Roman;" vertex="1" parent="1">
          <mxGeometry x="440" y="240" width="200" height="120" as="geometry" />
        </mxCell>
        <mxCell id="IyvMRcnvmjVK71PpzHeP-12" style="edgeStyle=orthogonalEdgeStyle;rounded=0;orthogonalLoop=1;jettySize=auto;html=1;exitX=0.5;exitY=1;exitDx=0;exitDy=0;entryX=0.25;entryY=0;entryDx=0;entryDy=0;" edge="1" parent="1" source="IyvMRcnvmjVK71PpzHeP-7" target="IyvMRcnvmjVK71PpzHeP-9">
          <mxGeometry relative="1" as="geometry" />
        </mxCell>
        <mxCell id="IyvMRcnvmjVK71PpzHeP-7" value="LDOs&lt;div&gt;Current Sensors&lt;/div&gt;" style="rounded=0;whiteSpace=wrap;html=1;fontSize=20;fontStyle=1;fontFamily=Times New Roman;" vertex="1" parent="1">
          <mxGeometry x="40" y="200" width="200" height="80" as="geometry" />
        </mxCell>
        <mxCell id="IyvMRcnvmjVK71PpzHeP-11" style="edgeStyle=orthogonalEdgeStyle;rounded=0;orthogonalLoop=1;jettySize=auto;html=1;exitX=1;exitY=0.5;exitDx=0;exitDy=0;entryX=0;entryY=0.5;entryDx=0;entryDy=0;" edge="1" parent="1" source="IyvMRcnvmjVK71PpzHeP-8" target="IyvMRcnvmjVK71PpzHeP-7">
          <mxGeometry relative="1" as="geometry" />
        </mxCell>
        <mxCell id="IyvMRcnvmjVK71PpzHeP-8" value="Power Measurements" style="rounded=0;whiteSpace=wrap;html=1;fontSize=20;fontStyle=1;fontFamily=Times New Roman;" vertex="1" parent="1">
          <mxGeometry x="-200" y="200" width="200" height="80" as="geometry" />
        </mxCell>
        <mxCell id="IyvMRcnvmjVK71PpzHeP-31" style="edgeStyle=orthogonalEdgeStyle;rounded=0;orthogonalLoop=1;jettySize=auto;html=1;exitX=1;exitY=0.5;exitDx=0;exitDy=0;entryX=0;entryY=0.5;entryDx=0;entryDy=0;startArrow=classic;startFill=1;strokeWidth=3;" edge="1" parent="1" source="IyvMRcnvmjVK71PpzHeP-9" target="IyvMRcnvmjVK71PpzHeP-20">
          <mxGeometry relative="1" as="geometry" />
        </mxCell>
        <mxCell id="IyvMRcnvmjVK71PpzHeP-9" value="&lt;div style=&quot;text-align: right;&quot;&gt;&lt;span style=&quot;background-color: transparent; color: light-dark(rgb(0, 0, 0), rgb(255, 255, 255));&quot;&gt;ColdADC (I2C)&lt;/span&gt;&lt;/div&gt;&lt;div&gt;&lt;br&gt;&lt;/div&gt;&lt;div&gt;&lt;font style=&quot;font-size: 20px;&quot;&gt;ColdDATA&lt;/font&gt;&lt;/div&gt;&lt;div&gt;&lt;br&gt;&lt;/div&gt;&lt;div style=&quot;text-align: right;&quot;&gt;LArASIC (SPI)&lt;/div&gt;" style="rounded=0;whiteSpace=wrap;html=1;fontSize=12;fontStyle=1;fontFamily=Times New Roman;" vertex="1" parent="1">
          <mxGeometry x="200" y="400" width="200" height="120" as="geometry" />
        </mxCell>
        <mxCell id="IyvMRcnvmjVK71PpzHeP-13" value="14 bit ADC" style="rounded=0;whiteSpace=wrap;html=1;fontSize=20;fontStyle=1;fontFamily=Times New Roman;" vertex="1" parent="1">
          <mxGeometry x="-200" y="320" width="200" height="80" as="geometry" />
        </mxCell>
        <mxCell id="IyvMRcnvmjVK71PpzHeP-15" style="edgeStyle=orthogonalEdgeStyle;rounded=0;orthogonalLoop=1;jettySize=auto;html=1;exitX=0.5;exitY=0;exitDx=0;exitDy=0;entryX=0.5;entryY=1;entryDx=0;entryDy=0;" edge="1" parent="1" source="IyvMRcnvmjVK71PpzHeP-14" target="IyvMRcnvmjVK71PpzHeP-13">
          <mxGeometry relative="1" as="geometry" />
        </mxCell>
        <mxCell id="IyvMRcnvmjVK71PpzHeP-14" value="ColdDATA&lt;div&gt;MUX/DEMUX&lt;/div&gt;" style="rounded=0;whiteSpace=wrap;html=1;fontSize=20;fontStyle=1;fontFamily=Times New Roman;" vertex="1" parent="1">
          <mxGeometry x="-200" y="440" width="200" height="80" as="geometry" />
        </mxCell>
        <mxCell id="IyvMRcnvmjVK71PpzHeP-16" style="edgeStyle=orthogonalEdgeStyle;rounded=0;orthogonalLoop=1;jettySize=auto;html=1;exitX=1;exitY=0.5;exitDx=0;exitDy=0;entryX=0.005;entryY=0.663;entryDx=0;entryDy=0;entryPerimeter=0;endArrow=none;endFill=0;" edge="1" parent="1" source="IyvMRcnvmjVK71PpzHeP-14" target="IyvMRcnvmjVK71PpzHeP-9">
          <mxGeometry relative="1" as="geometry" />
        </mxCell>
        <mxCell id="IyvMRcnvmjVK71PpzHeP-18" style="edgeStyle=orthogonalEdgeStyle;rounded=0;orthogonalLoop=1;jettySize=auto;html=1;exitX=0.5;exitY=0;exitDx=0;exitDy=0;entryX=0.734;entryY=0.989;entryDx=0;entryDy=0;entryPerimeter=0;endArrow=classic;endFill=1;startArrow=classic;startFill=1;" edge="1" parent="1" source="IyvMRcnvmjVK71PpzHeP-3" target="IyvMRcnvmjVK71PpzHeP-1">
          <mxGeometry relative="1" as="geometry" />
        </mxCell>
        <mxCell id="IyvMRcnvmjVK71PpzHeP-20" value="&lt;div style=&quot;text-align: right;&quot;&gt;&lt;span style=&quot;background-color: transparent; color: light-dark(rgb(0, 0, 0), rgb(255, 255, 255));&quot;&gt;ColdADC (I2C)&lt;/span&gt;&lt;/div&gt;&lt;div&gt;&lt;br&gt;&lt;/div&gt;&lt;div&gt;&lt;font style=&quot;font-size: 20px;&quot;&gt;ColdDATA&lt;/font&gt;&lt;/div&gt;&lt;div&gt;&lt;br&gt;&lt;/div&gt;&lt;div style=&quot;text-align: right;&quot;&gt;LArASIC (SPI)&lt;/div&gt;" style="rounded=0;whiteSpace=wrap;html=1;fontSize=12;fontStyle=1;fontFamily=Times New Roman;" vertex="1" parent="1">
          <mxGeometry x="680" y="400" width="200" height="120" as="geometry" />
        </mxCell>
        <mxCell id="IyvMRcnvmjVK71PpzHeP-27" style="edgeStyle=orthogonalEdgeStyle;rounded=0;orthogonalLoop=1;jettySize=auto;html=1;exitX=1;exitY=0.5;exitDx=0;exitDy=0;entryX=0;entryY=0.5;entryDx=0;entryDy=0;endArrow=none;endFill=0;dashed=1;dashPattern=8 8;strokeWidth=3;" edge="1" parent="1" source="IyvMRcnvmjVK71PpzHeP-22" target="IyvMRcnvmjVK71PpzHeP-24">
          <mxGeometry relative="1" as="geometry" />
        </mxCell>
        <mxCell id="IyvMRcnvmjVK71PpzHeP-28" style="edgeStyle=orthogonalEdgeStyle;rounded=0;orthogonalLoop=1;jettySize=auto;html=1;exitX=1;exitY=0.5;exitDx=0;exitDy=0;entryX=0;entryY=0.5;entryDx=0;entryDy=0;endArrow=none;endFill=0;dashed=1;dashPattern=8 8;strokeWidth=3;" edge="1" parent="1" source="IyvMRcnvmjVK71PpzHeP-22" target="IyvMRcnvmjVK71PpzHeP-25">
          <mxGeometry relative="1" as="geometry" />
        </mxCell>
        <mxCell id="IyvMRcnvmjVK71PpzHeP-22" value="LDOs&lt;div&gt;Current Sensors&lt;/div&gt;" style="rounded=0;whiteSpace=wrap;html=1;fontSize=20;fontStyle=1;fontFamily=Times New Roman;" vertex="1" parent="1">
          <mxGeometry x="-200" y="760" width="200" height="80" as="geometry" />
        </mxCell>
        <mxCell id="IyvMRcnvmjVK71PpzHeP-26" style="edgeStyle=orthogonalEdgeStyle;rounded=0;orthogonalLoop=1;jettySize=auto;html=1;exitX=0.5;exitY=1;exitDx=0;exitDy=0;entryX=0.5;entryY=0;entryDx=0;entryDy=0;endArrow=none;endFill=0;dashed=1;dashPattern=8 8;strokeWidth=3;" edge="1" parent="1" source="IyvMRcnvmjVK71PpzHeP-23" target="IyvMRcnvmjVK71PpzHeP-22">
          <mxGeometry relative="1" as="geometry" />
        </mxCell>
        <mxCell id="IyvMRcnvmjVK71PpzHeP-23" value="Power Measurements" style="rounded=0;whiteSpace=wrap;html=1;fontSize=20;fontStyle=1;fontFamily=Times New Roman;" vertex="1" parent="1">
          <mxGeometry x="-200" y="640" width="200" height="80" as="geometry" />
        </mxCell>
        <mxCell id="IyvMRcnvmjVK71PpzHeP-29" style="edgeStyle=orthogonalEdgeStyle;rounded=0;orthogonalLoop=1;jettySize=auto;html=1;exitX=1;exitY=0.5;exitDx=0;exitDy=0;entryX=1;entryY=0.25;entryDx=0;entryDy=0;" edge="1" parent="1" source="IyvMRcnvmjVK71PpzHeP-24" target="IyvMRcnvmjVK71PpzHeP-9">
          <mxGeometry relative="1" as="geometry">
            <Array as="points">
              <mxPoint x="520" y="820" />
              <mxPoint x="520" y="430" />
            </Array>
          </mxGeometry>
        </mxCell>
        <mxCell id="IyvMRcnvmjVK71PpzHeP-24" value="&lt;div style=&quot;text-align: left;&quot;&gt;&lt;span style=&quot;background-color: transparent; color: light-dark(rgb(0, 0, 0), rgb(255, 255, 255));&quot;&gt;Test&lt;/span&gt;&lt;/div&gt;&lt;div&gt;&lt;br&gt;&lt;/div&gt;&lt;div&gt;&lt;font style=&quot;font-size: 20px;&quot;&gt;ColdADC P2&lt;/font&gt;&lt;/div&gt;&lt;div&gt;&lt;br&gt;&lt;/div&gt;&lt;div style=&quot;text-align: left;&quot;&gt;Ref&lt;/div&gt;" style="rounded=0;whiteSpace=wrap;html=1;fontSize=12;fontStyle=1;fontFamily=Times New Roman;" vertex="1" parent="1">
          <mxGeometry x="200" y="840" width="200" height="120" as="geometry" />
        </mxCell>
        <mxCell id="IyvMRcnvmjVK71PpzHeP-30" style="edgeStyle=orthogonalEdgeStyle;rounded=0;orthogonalLoop=1;jettySize=auto;html=1;exitX=1;exitY=0.5;exitDx=0;exitDy=0;entryX=1;entryY=0.75;entryDx=0;entryDy=0;" edge="1" parent="1" source="IyvMRcnvmjVK71PpzHeP-25" target="IyvMRcnvmjVK71PpzHeP-9">
          <mxGeometry relative="1" as="geometry">
            <mxPoint x="400" y="460" as="targetPoint" />
            <Array as="points">
              <mxPoint x="480" y="1180" />
              <mxPoint x="480" y="490" />
            </Array>
          </mxGeometry>
        </mxCell>
        <mxCell id="IyvMRcnvmjVK71PpzHeP-25" value="&lt;div style=&quot;text-align: left;&quot;&gt;&lt;br&gt;&lt;/div&gt;&lt;div&gt;&lt;br&gt;&lt;/div&gt;&lt;div&gt;&lt;font style=&quot;font-size: 20px;&quot;&gt;LArASIC P5B&lt;/font&gt;&lt;/div&gt;&lt;div&gt;&lt;br&gt;&lt;/div&gt;&lt;div style=&quot;text-align: left;&quot;&gt;T/M&lt;/div&gt;" style="rounded=0;whiteSpace=wrap;html=1;fontSize=12;fontStyle=1;fontFamily=Times New Roman;" vertex="1" parent="1">
          <mxGeometry x="200" y="1200" width="200" height="120" as="geometry" />
        </mxCell>
        <mxCell id="IyvMRcnvmjVK71PpzHeP-33" style="edgeStyle=orthogonalEdgeStyle;rounded=0;orthogonalLoop=1;jettySize=auto;html=1;exitX=1;exitY=0.5;exitDx=0;exitDy=0;entryX=0;entryY=0.75;entryDx=0;entryDy=0;" edge="1" parent="1" source="IyvMRcnvmjVK71PpzHeP-32" target="IyvMRcnvmjVK71PpzHeP-24">
          <mxGeometry relative="1" as="geometry" />
        </mxCell>
        <mxCell id="IyvMRcnvmjVK71PpzHeP-32" value="ADC&lt;div&gt;MUX/DEMUX&lt;/div&gt;" style="rounded=0;whiteSpace=wrap;html=1;fontSize=20;fontStyle=1;fontFamily=Times New Roman;" vertex="1" parent="1">
          <mxGeometry x="-200" y="900" width="200" height="60" as="geometry" />
        </mxCell>
        <mxCell id="IyvMRcnvmjVK71PpzHeP-34" value="FE&lt;div&gt;MUX/DEMUX&lt;/div&gt;" style="rounded=0;whiteSpace=wrap;html=1;fontSize=20;fontStyle=1;fontFamily=Times New Roman;" vertex="1" parent="1">
          <mxGeometry x="-200" y="1260" width="200" height="60" as="geometry" />
        </mxCell>
        <mxCell id="IyvMRcnvmjVK71PpzHeP-35" value="14 bit ADC" style="rounded=0;whiteSpace=wrap;html=1;fontSize=20;fontStyle=1;fontFamily=Times New Roman;" vertex="1" parent="1">
          <mxGeometry x="-200" y="1140" width="200" height="60" as="geometry" />
        </mxCell>
        <mxCell id="IyvMRcnvmjVK71PpzHeP-36" value="16 bit DAC" style="rounded=0;whiteSpace=wrap;html=1;fontSize=20;fontStyle=1;fontFamily=Times New Roman;" vertex="1" parent="1">
          <mxGeometry x="-200" y="1380" width="200" height="60" as="geometry" />
        </mxCell>
      </root>
    </mxGraphModel>
  </diagram>
</mxfile>
